<svg id="Capa_1" enable-background="new 0 0 512 512" height="512" viewBox="0 0 512 512" width="512" xmlns="http://www.w3.org/2000/svg"><g><g><g><g><g><g><g><g><circle cx="256" cy="256" fill="#1dd882" r="256"/></g></g></g></g></g></g></g><path d="m259.292 511.979c139.867-1.762 252.708-115.693 252.708-255.979 0-1.01-.006-2.018-.018-3.025l-149.311-149.311-117.18 171.866 10.509 141.253-56.688 35.217z" fill="#06b26b"/><g><path d="m275.547 342.7 132.358-179.574-303.81.001 132.358 179.573v78.024h-37.141v31.276h113.376v-31.276h-37.141z" fill="#fff"/></g><g><path d="m275.547 342.7 132.358-179.574h-151.863v288.874h56.646v-31.276h-37.141z" fill="#e9edf5"/></g><g><path d="m330.168 220.398h-148.336l74.168 100.626z" fill="#ffce00"/></g><g><path d="m256.042 220.398v100.568l74.125-100.568z" fill="#fdba12"/></g><g><g><path d="m226.751 153.464h165.176v30.001h-165.176z" fill="#636978" transform="matrix(.488 -.873 .873 .488 11.333 356.25)"/></g></g><g><circle cx="293.266" cy="198.995" fill="#1dd882" r="30.624"/></g></g></svg>